<mxfile host="65bd71144e">
    <diagram id="_tP5PxjzDDEW9ec0Ipeh" name="Page-1">
        <mxGraphModel dx="986" dy="1187" grid="1" gridSize="10" guides="1" tooltips="1" connect="1" arrows="1" fold="1" page="0" pageScale="1" pageWidth="850" pageHeight="1100" math="0" shadow="0">
            <root>
                <mxCell id="0"/>
                <mxCell id="1" parent="0"/>
                <mxCell id="3" value="&lt;font style=&quot;font-size: 28px;&quot;&gt;Client&lt;/font&gt;" style="rounded=0;whiteSpace=wrap;html=1;" vertex="1" parent="1">
                    <mxGeometry x="520" y="70" width="210" height="100" as="geometry"/>
                </mxCell>
                <mxCell id="4" value="Server" style="rounded=0;whiteSpace=wrap;html=1;fontStyle=0;fillColor=default;fontSize=31;" vertex="1" parent="1">
                    <mxGeometry x="490" y="550" width="340" height="130" as="geometry"/>
                </mxCell>
                <mxCell id="8" value="&lt;div style=&quot;&quot;&gt;&lt;span style=&quot;background-color: initial;&quot;&gt;Database&lt;/span&gt;&lt;/div&gt;&lt;div style=&quot;&quot;&gt;&lt;span style=&quot;background-color: initial;&quot;&gt;PW24fdg: 3u23zrt328gfd34f&lt;/span&gt;&lt;/div&gt;&lt;div style=&quot;&quot;&gt;&lt;span style=&quot;background-color: initial;&quot;&gt;gig8d2&lt;/span&gt;&lt;/div&gt;" style="rounded=0;whiteSpace=wrap;html=1;fontSize=31;fillColor=default;align=center;" vertex="1" parent="1">
                    <mxGeometry x="1170" y="320" width="260" height="360" as="geometry"/>
                </mxCell>
                <mxCell id="11" value="PW: 24fdg&lt;br&gt;UID: 856tnfe34r4r3" style="text;html=1;align=center;verticalAlign=middle;resizable=0;points=[];autosize=1;strokeColor=none;fillColor=none;fontSize=13;" vertex="1" parent="1">
                    <mxGeometry x="435" y="390" width="130" height="40" as="geometry"/>
                </mxCell>
                <mxCell id="12" value="" style="endArrow=classic;html=1;fontSize=13;exitX=0.25;exitY=1;exitDx=0;exitDy=0;entryX=0.25;entryY=0;entryDx=0;entryDy=0;" edge="1" parent="1" source="3" target="4">
                    <mxGeometry width="50" height="50" relative="1" as="geometry">
                        <mxPoint x="540" y="460" as="sourcePoint"/>
                        <mxPoint x="590" y="410" as="targetPoint"/>
                    </mxGeometry>
                </mxCell>
                <mxCell id="13" value="" style="endArrow=classic;html=1;fontSize=13;exitX=1;exitY=0.5;exitDx=0;exitDy=0;entryX=-0.004;entryY=0.811;entryDx=0;entryDy=0;entryPerimeter=0;" edge="1" parent="1" source="4" target="8">
                    <mxGeometry width="50" height="50" relative="1" as="geometry">
                        <mxPoint x="540" y="460" as="sourcePoint"/>
                        <mxPoint x="590" y="410" as="targetPoint"/>
                    </mxGeometry>
                </mxCell>
                <mxCell id="14" value="PW: 24fdg&lt;br&gt;UID: 856tnfe34r4r3" style="text;html=1;align=center;verticalAlign=middle;resizable=0;points=[];autosize=1;strokeColor=none;fillColor=none;fontSize=13;" vertex="1" parent="1">
                    <mxGeometry x="940" y="620" width="130" height="40" as="geometry"/>
                </mxCell>
                <mxCell id="15" value="" style="endArrow=classic;html=1;fontSize=13;exitX=0;exitY=0.708;exitDx=0;exitDy=0;exitPerimeter=0;entryX=1.012;entryY=0.177;entryDx=0;entryDy=0;entryPerimeter=0;" edge="1" parent="1" source="8" target="4">
                    <mxGeometry width="50" height="50" relative="1" as="geometry">
                        <mxPoint x="630" y="470" as="sourcePoint"/>
                        <mxPoint x="680" y="420" as="targetPoint"/>
                    </mxGeometry>
                </mxCell>
                <mxCell id="16" value="&lt;div style=&quot;font-size: 13px;&quot;&gt;&lt;span style=&quot;background-color: initial; font-size: 13px;&quot;&gt;3u23zrt328gfd34f&lt;/span&gt;&lt;/div&gt;&lt;div style=&quot;font-size: 13px;&quot;&gt;&lt;span style=&quot;background-color: initial; font-size: 13px;&quot;&gt;gig8d2&lt;/span&gt;&lt;/div&gt;" style="text;html=1;align=center;verticalAlign=middle;resizable=0;points=[];autosize=1;strokeColor=none;fillColor=none;fontSize=13;" vertex="1" parent="1">
                    <mxGeometry x="950" y="530" width="120" height="40" as="geometry"/>
                </mxCell>
                <mxCell id="17" value="&lt;div style=&quot;font-size: 13px;&quot;&gt;&lt;span style=&quot;background-color: initial; font-size: 13px;&quot;&gt;3u23zrt328gfd34f&lt;/span&gt;&lt;/div&gt;&lt;div style=&quot;font-size: 13px;&quot;&gt;&lt;span style=&quot;background-color: initial; font-size: 13px;&quot;&gt;gig8d2&lt;/span&gt;&lt;/div&gt;" style="text;html=1;align=center;verticalAlign=middle;resizable=0;points=[];autosize=1;strokeColor=none;fillColor=none;fontSize=13;" vertex="1" parent="1">
                    <mxGeometry x="680" y="400" width="120" height="40" as="geometry"/>
                </mxCell>
                <mxCell id="18" value="" style="endArrow=classic;html=1;fontSize=13;exitX=0.562;exitY=-0.015;exitDx=0;exitDy=0;exitPerimeter=0;entryX=0.75;entryY=1;entryDx=0;entryDy=0;" edge="1" parent="1" source="4" target="3">
                    <mxGeometry width="50" height="50" relative="1" as="geometry">
                        <mxPoint x="920" y="440" as="sourcePoint"/>
                        <mxPoint x="970" y="390" as="targetPoint"/>
                    </mxGeometry>
                </mxCell>
                <mxCell id="19" value="Unhasher" style="shape=loopLimit;whiteSpace=wrap;html=1;fontSize=13;fillColor=default;" vertex="1" parent="1">
                    <mxGeometry x="900" y="70" width="170" height="100" as="geometry"/>
                </mxCell>
                <mxCell id="20" value="&lt;div style=&quot;font-size: 13px;&quot;&gt;&lt;span style=&quot;background-color: initial; font-size: 13px;&quot;&gt;3u23zrt328gfd34f&lt;/span&gt;&lt;/div&gt;&lt;div style=&quot;font-size: 13px;&quot;&gt;&lt;span style=&quot;background-color: initial; font-size: 13px;&quot;&gt;gig8d2&lt;/span&gt;&lt;/div&gt;&lt;div style=&quot;font-size: 13px;&quot;&gt;&lt;span style=&quot;background-color: initial; font-size: 13px;&quot;&gt;Key:&amp;nbsp;&lt;/span&gt;&lt;/div&gt;GH84rhd38lfskefh" style="text;html=1;align=center;verticalAlign=middle;resizable=0;points=[];autosize=1;strokeColor=none;fillColor=none;fontSize=13;" vertex="1" parent="1">
                    <mxGeometry x="755" y="20" width="130" height="80" as="geometry"/>
                </mxCell>
                <mxCell id="21" value="" style="endArrow=classic;html=1;fontSize=13;exitX=0.995;exitY=0.36;exitDx=0;exitDy=0;exitPerimeter=0;entryX=0;entryY=0.38;entryDx=0;entryDy=0;entryPerimeter=0;" edge="1" parent="1" source="3" target="19">
                    <mxGeometry width="50" height="50" relative="1" as="geometry">
                        <mxPoint x="920" y="330" as="sourcePoint"/>
                        <mxPoint x="970" y="280" as="targetPoint"/>
                    </mxGeometry>
                </mxCell>
                <mxCell id="22" value="" style="endArrow=classic;html=1;fontSize=13;exitX=0;exitY=0.75;exitDx=0;exitDy=0;entryX=1;entryY=0.75;entryDx=0;entryDy=0;" edge="1" parent="1" source="19" target="3">
                    <mxGeometry width="50" height="50" relative="1" as="geometry">
                        <mxPoint x="920" y="330" as="sourcePoint"/>
                        <mxPoint x="970" y="280" as="targetPoint"/>
                    </mxGeometry>
                </mxCell>
                <mxCell id="23" value="" style="shape=image;html=1;verticalLabelPosition=bottom;verticalAlign=top;imageAspect=1;aspect=fixed;image=img/clipart/Gear_128x128.png;fontSize=13;fillColor=default;" vertex="1" parent="1">
                    <mxGeometry x="1018" y="110" width="52" height="61" as="geometry"/>
                </mxCell>
                <mxCell id="24" value="Password123!" style="text;html=1;strokeColor=none;fillColor=none;align=center;verticalAlign=middle;whiteSpace=wrap;rounded=0;fontSize=13;" vertex="1" parent="1">
                    <mxGeometry x="760" y="141" width="100" height="30" as="geometry"/>
                </mxCell>
                <mxCell id="25" value="Getting a PW" style="text;html=1;strokeColor=none;fillColor=none;align=center;verticalAlign=middle;whiteSpace=wrap;rounded=0;fontSize=54;" vertex="1" parent="1">
                    <mxGeometry x="670" y="-80" width="420" height="80" as="geometry"/>
                </mxCell>
                <mxCell id="26" value="Creating a new PW" style="text;html=1;strokeColor=none;fillColor=none;align=center;verticalAlign=middle;whiteSpace=wrap;rounded=0;fontSize=54;" vertex="1" parent="1">
                    <mxGeometry x="710" y="910" width="510" height="110" as="geometry"/>
                </mxCell>
                <mxCell id="27" value="Client" style="rounded=0;whiteSpace=wrap;html=1;fontSize=30;fillColor=default;" vertex="1" parent="1">
                    <mxGeometry x="720" y="1040" width="320" height="150" as="geometry"/>
                </mxCell>
                <mxCell id="28" value="&lt;div style=&quot;&quot;&gt;&lt;span style=&quot;background-color: initial;&quot;&gt;Database&lt;/span&gt;&lt;/div&gt;&lt;div style=&quot;&quot;&gt;&lt;span style=&quot;background-color: initial;&quot;&gt;PW45fdn:&lt;/span&gt;&lt;/div&gt;&lt;div style=&quot;&quot;&gt;&lt;font style=&quot;font-size: 30px;&quot;&gt;g34rio34r9rfh&lt;/font&gt;&lt;br&gt;&lt;/div&gt;" style="rounded=0;whiteSpace=wrap;html=1;fontSize=31;fillColor=default;align=center;" vertex="1" parent="1">
                    <mxGeometry x="1270" y="1330" width="260" height="360" as="geometry"/>
                </mxCell>
                <mxCell id="29" value="Server" style="rounded=0;whiteSpace=wrap;html=1;fontStyle=0;fillColor=default;fontSize=31;" vertex="1" parent="1">
                    <mxGeometry x="710" y="1560" width="340" height="130" as="geometry"/>
                </mxCell>
                <mxCell id="30" value="" style="endArrow=classic;html=1;fontSize=30;entryX=0.25;entryY=0;entryDx=0;entryDy=0;exitX=0.5;exitY=1;exitDx=0;exitDy=0;" edge="1" parent="1" source="31" target="29">
                    <mxGeometry width="50" height="50" relative="1" as="geometry">
                        <mxPoint x="810" y="1390" as="sourcePoint"/>
                        <mxPoint x="970" y="1340" as="targetPoint"/>
                    </mxGeometry>
                </mxCell>
                <mxCell id="31" value="Hasher" style="shape=loopLimit;whiteSpace=wrap;html=1;fontSize=17;fillColor=default;" vertex="1" parent="1">
                    <mxGeometry x="740" y="1330" width="100" height="80" as="geometry"/>
                </mxCell>
                <mxCell id="32" value="" style="endArrow=classic;html=1;fontSize=17;exitX=0.213;exitY=1.013;exitDx=0;exitDy=0;exitPerimeter=0;entryX=0.5;entryY=0;entryDx=0;entryDy=0;" edge="1" parent="1" source="27" target="31">
                    <mxGeometry width="50" height="50" relative="1" as="geometry">
                        <mxPoint x="920" y="1390" as="sourcePoint"/>
                        <mxPoint x="970" y="1340" as="targetPoint"/>
                    </mxGeometry>
                </mxCell>
                <mxCell id="33" value="PW45fdn:&lt;br&gt;AWSPW123!" style="text;html=1;align=center;verticalAlign=middle;resizable=0;points=[];autosize=1;strokeColor=none;fillColor=none;fontSize=17;" vertex="1" parent="1">
                    <mxGeometry x="670" y="1240" width="120" height="50" as="geometry"/>
                </mxCell>
                <mxCell id="35" value="PW45fdn:&lt;br&gt;g34rio34r9rfh&lt;br&gt;UID: 3409f49rq" style="text;html=1;align=center;verticalAlign=middle;resizable=0;points=[];autosize=1;strokeColor=none;fillColor=none;fontSize=17;" vertex="1" parent="1">
                    <mxGeometry x="660" y="1440" width="140" height="70" as="geometry"/>
                </mxCell>
                <mxCell id="36" value="" style="endArrow=classic;html=1;fontSize=17;exitX=1;exitY=0.25;exitDx=0;exitDy=0;entryX=0;entryY=0.75;entryDx=0;entryDy=0;" edge="1" parent="1" source="29" target="28">
                    <mxGeometry width="50" height="50" relative="1" as="geometry">
                        <mxPoint x="920" y="1370" as="sourcePoint"/>
                        <mxPoint x="970" y="1320" as="targetPoint"/>
                    </mxGeometry>
                </mxCell>
                <mxCell id="40" value="CREATE IN 3409f49rq&lt;br&gt;g34rio34r9rfh" style="edgeLabel;html=1;align=center;verticalAlign=middle;resizable=0;points=[];fontSize=17;labelBackgroundColor=none;" vertex="1" connectable="0" parent="36">
                    <mxGeometry x="-0.8092" relative="1" as="geometry">
                        <mxPoint x="79" y="-23" as="offset"/>
                    </mxGeometry>
                </mxCell>
                <mxCell id="38" value="" style="endArrow=none;html=1;fontSize=17;exitX=0.5;exitY=1;exitDx=0;exitDy=0;" edge="1" parent="1" source="27">
                    <mxGeometry width="50" height="50" relative="1" as="geometry">
                        <mxPoint x="920" y="1370" as="sourcePoint"/>
                        <mxPoint x="790" y="1440" as="targetPoint"/>
                        <Array as="points">
                            <mxPoint x="860" y="1420"/>
                            <mxPoint x="850" y="1440"/>
                            <mxPoint x="830" y="1440"/>
                        </Array>
                    </mxGeometry>
                </mxCell>
                <mxCell id="39" value="UID: 3409f49rq" style="text;html=1;align=center;verticalAlign=middle;resizable=0;points=[];autosize=1;strokeColor=none;fillColor=none;fontSize=17;" vertex="1" parent="1">
                    <mxGeometry x="870" y="1290" width="140" height="30" as="geometry"/>
                </mxCell>
                <mxCell id="41" value="" style="endArrow=classic;html=1;fontSize=30;exitX=-0.012;exitY=0.911;exitDx=0;exitDy=0;exitPerimeter=0;entryX=1.009;entryY=0.692;entryDx=0;entryDy=0;entryPerimeter=0;" edge="1" parent="1" source="28" target="29">
                    <mxGeometry width="50" height="50" relative="1" as="geometry">
                        <mxPoint x="920" y="1550" as="sourcePoint"/>
                        <mxPoint x="970" y="1500" as="targetPoint"/>
                    </mxGeometry>
                </mxCell>
                <mxCell id="42" value="" style="verticalLabelPosition=bottom;verticalAlign=top;html=1;shape=mxgraph.basic.tick;labelBackgroundColor=none;fontSize=30;fillColor=default;" vertex="1" parent="1">
                    <mxGeometry x="1130" y="1660" width="30" height="40" as="geometry"/>
                </mxCell>
                <mxCell id="43" value="" style="endArrow=classic;html=1;fontSize=30;exitX=0.962;exitY=0.008;exitDx=0;exitDy=0;exitPerimeter=0;entryX=0.95;entryY=1.013;entryDx=0;entryDy=0;entryPerimeter=0;" edge="1" parent="1" source="29" target="27">
                    <mxGeometry width="50" height="50" relative="1" as="geometry">
                        <mxPoint x="920" y="1350" as="sourcePoint"/>
                        <mxPoint x="970" y="1300" as="targetPoint"/>
                    </mxGeometry>
                </mxCell>
                <mxCell id="44" value="PW added!" style="text;html=1;align=center;verticalAlign=middle;resizable=0;points=[];autosize=1;strokeColor=none;fillColor=none;fontSize=16;" vertex="1" parent="1">
                    <mxGeometry x="1030" y="1320" width="100" height="30" as="geometry"/>
                </mxCell>
                <mxCell id="45" value="" style="verticalLabelPosition=bottom;verticalAlign=top;html=1;shape=mxgraph.basic.tick;labelBackgroundColor=none;fontSize=16;fillColor=default;" vertex="1" parent="1">
                    <mxGeometry x="1050" y="1350" width="30" height="40" as="geometry"/>
                </mxCell>
                <mxCell id="46" value="" style="shape=image;html=1;verticalLabelPosition=bottom;verticalAlign=top;imageAspect=1;aspect=fixed;image=img/clipart/Gear_128x128.png;labelBackgroundColor=none;fontSize=16;fillColor=default;" vertex="1" parent="1">
                    <mxGeometry x="808" y="1372.46" width="32" height="37.54" as="geometry"/>
                </mxCell>
            </root>
        </mxGraphModel>
    </diagram>
</mxfile>